<svg height="512pt" viewBox="0 0 512 512.19436" width="512pt" xmlns="http://www.w3.org/2000/svg"><path d="m379.683594.195312h35.308594c4.875 0 8.828124 3.953126 8.828124 8.828126v44.136718h-52.964843v-44.136718c0-4.875 3.953125-8.828126 8.828125-8.828126zm0 0" fill="#df4d60"/><path d="m335.546875 145.847656h123.585937v200.671875h-123.585937zm0 0" fill="#bdc3c7"/><path d="m432.648438 97.296875h-150.070313l14.566406 65.589844c1.800781 8.070312 8.945313 13.824219 17.214844 13.859375h165.957031c8.269532-.035156 15.414063-5.789063 17.214844-13.859375l14.566406-65.589844zm0 0" fill="#90bae1"/><path d="m26.578125 242.953125h203.035156v103.566406h-203.035156zm0 0" fill="#285680"/><path d="m70.71875 300.332031h114.757812c4.875 0 8.828126 3.953125 8.828126 8.828125v53.519532h-132.414063v-53.519532c0-4.875 3.953125-8.828125 8.828125-8.828125zm0 0" fill="#90bae1"/><path d="m317.890625 53.160156c-4.875 0-8.828125-3.953125-8.828125-8.828125v-35.308593c0-4.875 3.953125-8.828126 8.828125-8.828126s8.828125 3.953126 8.828125 8.828126v35.308593c0 4.875-3.953125 8.828125-8.828125 8.828125zm0 0" fill="#5e5f62"/><path d="m476.785156 53.160156c-4.875 0-8.824218-3.953125-8.824218-8.828125v-35.308593c0-4.875 3.949218-8.828126 8.824218-8.828126 4.878906 0 8.828125 3.953126 8.828125 8.828126v35.308593c0 4.875-3.949219 8.828125-8.828125 8.828125zm0 0" fill="#5e5f62"/><path d="m17.753906 335.644531h476.6875c9.75 0 17.65625 7.902344 17.65625 17.652344v141.242187c0 9.75-7.90625 17.65625-17.65625 17.65625h-476.6875c-9.753906 0-17.6562498-7.90625-17.6562498-17.65625v-141.242187c0-9.75 7.9023438-17.652344 17.6562498-17.652344zm0 0" fill="#556080"/><path d="m362.027344 97.296875h70.621094v79.449219h-70.621094zm0 0" fill="#b0d3f0"/><path d="m512.097656 97.296875h-229.519531l7.601563-45.585937c.707031-4.253907 4.390624-7.375 8.703124-7.378907h196.910157c4.316406.003907 7.996093 3.125 8.703125 7.378907zm0 0" fill="#7f8c8d"/><path d="m58.640625 177.742188 191.199219-150.066407c1.855468-1.453125 3.054687-3.59375 3.328125-5.933593.269531-2.34375-.40625-4.699219-1.882813-6.539063-10.984375-15.375-31.929687-19.753906-48.152344-10.066406-17.101562 9.953125-33.605468 20.890625-49.4375 32.761719-2.21875 1.617187-5.070312 2.089843-7.695312 1.277343l-78.503906-23.683593c-3.125-.953126-6.519532-.105469-8.828125 2.207031l-22.511719 22.511719c-2.050781 2.054687-2.960938 4.988281-2.433594 7.84375.527344 2.859374 2.429688 5.273437 5.082032 6.457031l54.175781 24.25c2.792969 1.25 4.738281 3.855469 5.140625 6.886719.40625 3.03125-.789063 6.054687-3.152344 7.996093l-30.015625 24.59375c-1.605469 1.328125-3.628906 2.039063-5.710937 2.011719l-28.902344-.292969c-2.402344-.023437-4.710938.933594-6.390625 2.648438l-15.84375 16.183593c-1.839844 1.875-2.742188 4.476563-2.46875 7.085938.273437 2.613281 1.695312 4.96875 3.878906 6.425781l38.78125 25.839844c3.171875 2.117187 7.34375 1.957031 10.34375-.398437zm0 0" fill="#bdc3c7"/><path d="m238.089844 256.195312h-219.984375c-9.945313 0-18.0078128-8.0625-18.0078128-18.007812s8.0624998-18.007812 18.0078128-18.007812l83.710937-14.648438c8.679688-1.523438 17.472656-2.296875 26.28125-2.300781 8.808594-.003907 17.601563.757812 26.277344 2.277343l83.714844 14.644532c4.773437 0 9.355468 1.894531 12.734375 5.273437 3.375 3.378907 5.273437 7.957031 5.273437 12.734375.007813 4.78125-1.886718 9.367188-5.265625 12.75-3.378906 3.382813-7.960937 5.285156-12.742187 5.285156zm0 0" fill="#4482c3"/><path d="m44.234375 370.953125h105.933594c4.875 0 8.824219 3.953125 8.824219 8.828125v17.65625c0 4.875-3.949219 8.824219-8.824219 8.824219h-105.933594c-4.875 0-8.828125-3.949219-8.828125-8.824219v-17.65625c0-4.875 3.953125-8.828125 8.828125-8.828125zm0 0" fill="#b0d3f0"/><path d="m44.234375 441.574219h211.863281c4.875 0 8.828125 3.953125 8.828125 8.828125v17.652344c0 4.878906-3.953125 8.828124-8.828125 8.828124h-211.863281c-4.875 0-8.828125-3.949218-8.828125-8.828124v-17.652344c0-4.875 3.953125-8.828125 8.828125-8.828125zm0 0" fill="#f5efca"/><g fill="#b0d3f0"><path d="m309.0625 370.953125h52.964844c4.875 0 8.828125 3.953125 8.828125 8.828125v17.65625c0 4.875-3.953125 8.824219-8.828125 8.824219h-52.964844c-4.875 0-8.828125-3.949219-8.828125-8.824219v-17.65625c0-4.875 3.953125-8.828125 8.828125-8.828125zm0 0"/><path d="m203.132812 370.953125h52.964844c4.875 0 8.828125 3.953125 8.828125 8.828125v17.65625c0 4.875-3.953125 8.824219-8.828125 8.824219h-52.964844c-4.875 0-8.828124-3.949219-8.828124-8.824219v-17.65625c0-4.875 3.953124-8.828125 8.828124-8.828125zm0 0"/><path d="m414.992188 370.953125h52.96875c4.875 0 8.824218 3.953125 8.824218 8.828125v17.65625c0 4.875-3.949218 8.824219-8.824218 8.824219h-52.96875c-4.875 0-8.824219-3.949219-8.824219-8.824219v-17.65625c0-4.875 3.949219-8.828125 8.824219-8.828125zm0 0"/></g><path d="m414.992188 441.574219h52.96875c4.875 0 8.824218 3.953125 8.824218 8.828125v17.652344c0 4.878906-3.949218 8.828124-8.824218 8.828124h-52.96875c-4.875 0-8.824219-3.949218-8.824219-8.828124v-17.652344c0-4.875 3.949219-8.828125 8.824219-8.828125zm0 0" fill="#90bae1"/><path d="m309.0625 441.574219h52.964844c4.875 0 8.828125 3.953125 8.828125 8.828125v17.652344c0 4.878906-3.953125 8.828124-8.828125 8.828124h-52.964844c-4.875 0-8.828125-3.949218-8.828125-8.828124v-17.652344c0-4.875 3.953125-8.828125 8.828125-8.828125zm0 0" fill="#90bae1"/><path d="m370.855469 265.023438c-4.875 0-8.828125-3.953126-8.828125-8.828126v-44.140624c0-4.875 3.953125-8.824219 8.828125-8.824219s8.828125 3.949219 8.828125 8.824219v44.140624c0 4.875-3.953125 8.828126-8.828125 8.828126zm0 0" fill="#e6e7e8"/><path d="m370.855469 309.160156c-4.875 0-8.828125-3.953125-8.828125-8.828125v-8.828125c0-4.875 3.953125-8.828125 8.828125-8.828125s8.828125 3.953125 8.828125 8.828125v8.828125c0 4.875-3.953125 8.828125-8.828125 8.828125zm0 0" fill="#e6e7e8"/></svg>